<?xml version="1.0" encoding="iso-8859-1"?>
<!-- Generator: Adobe Illustrator 19.0.0, SVG Export Plug-In . SVG Version: 6.00 Build 0)  -->
<svg version="1.1" id="Capa_1" xmlns="http://www.w3.org/2000/svg" xmlns:xlink="http://www.w3.org/1999/xlink" x="0px" y="0px"
	 viewBox="0 0 512 512" style="enable-background:new 0 0 512 512;" xml:space="preserve">
<path style="fill:#303C42;" d="M394.667,64H32c-5.896,0-10.667,4.771-10.667,10.667v33.965C8.944,113.049,0,124.779,0,138.667
	s8.944,25.617,21.333,30.035V320c0,23.531,19.135,42.667,42.667,42.667h298.667c23.531,0,42.667-19.135,42.667-42.667V74.667
	C405.333,68.771,400.563,64,394.667,64z"/>
<g>
	<polygon style="fill:#37474F;" points="384,128 335.083,128 377.75,85.333 384,85.333 	"/>
	<polygon style="fill:#37474F;" points="79.083,128 121.75,85.333 155.583,85.333 112.917,128 	"/>
</g>
<polygon style="fill:#FFFFFF;" points="185.75,85.333 219.583,85.333 176.917,128 143.083,128 "/>
<polygon style="fill:#37474F;" points="249.75,85.333 283.583,85.333 240.917,128 207.083,128 "/>
<g>
	<polygon style="fill:#FFFFFF;" points="313.75,85.333 347.583,85.333 304.917,128 271.083,128 	"/>
	<path style="fill:#FFFFFF;" d="M91.583,85.333l-34.141,34.141c-3.738-4.94-8.836-8.724-14.776-10.842V85.333H91.583z"/>
</g>
<circle style="fill:#37474F;" cx="32" cy="138.667" r="10.667"/>
<path style="opacity:0.2;fill:#FFFFFF;enable-background:new    ;" d="M23.466,140.799c0-5.885,4.781-10.667,10.667-10.667
	c2.391,0,4.487,0.936,6.267,2.267c-1.947-2.603-4.905-4.4-8.4-4.4c-5.885,0-10.667,4.781-10.667,10.667c0,3.495,1.797,6.453,4.4,8.4
	C24.402,145.286,23.466,143.19,23.466,140.799z"/>
<path style="fill:#37474F;" d="M384,320c0,11.76-9.573,21.333-21.333,21.333H64c-11.76,0-21.333-9.573-21.333-21.333V168.702
	c9.036-3.223,16.146-10.332,19.368-19.368H384V320z"/>
<linearGradient id="SVGID_1_" gradientUnits="userSpaceOnUse" x1="-40.4762" y1="642.8035" x2="-28.7234" y2="631.0507" gradientTransform="matrix(21.3333 0 0 -21.3333 996.3334 13791.667)">
	<stop  offset="0" style="stop-color:#000000;stop-opacity:0.1"/>
	<stop  offset="1" style="stop-color:#000000;stop-opacity:0"/>
</linearGradient>
<path style="fill:url(#SVGID_1_);" d="M362.667,341.333c11.76,0,21.333-9.573,21.333-21.333V149.333H62.035
	c-3.223,9.036-10.332,16.146-19.368,19.368l172.633,172.632H362.667z"/>
<g>
	<polygon style="opacity:0.2;fill:#FFFFFF;enable-background:new    ;" points="85.583,91.333 91.583,85.333 42.667,85.333 
		42.667,91.333 	"/>
	<polygon style="opacity:0.2;fill:#FFFFFF;enable-background:new    ;" points="149.583,91.333 155.583,85.333 121.75,85.333 
		115.75,91.333 	"/>
	<polygon style="opacity:0.2;fill:#FFFFFF;enable-background:new    ;" points="213.583,91.333 219.583,85.333 185.75,85.333 
		179.75,91.333 	"/>
	<polygon style="opacity:0.2;fill:#FFFFFF;enable-background:new    ;" points="277.583,91.333 283.583,85.333 249.75,85.333 
		243.75,91.333 	"/>
	<polygon style="opacity:0.2;fill:#FFFFFF;enable-background:new    ;" points="341.583,91.333 347.583,85.333 313.75,85.333 
		307.75,91.333 	"/>
	<polygon style="opacity:0.2;fill:#FFFFFF;enable-background:new    ;" points="384,91.333 384,85.333 377.75,85.333 371.75,91.333 
			"/>
</g>
<circle style="fill:#303C42;" cx="394.667" cy="330.667" r="117.333"/>
<circle style="fill:#7CB342;" cx="394.667" cy="330.667" r="96"/>
<path style="fill:#303C42;" d="M437.333,320h-32v-32c0-5.896-4.771-10.667-10.667-10.667c-5.896,0-10.667,4.771-10.667,10.667v32
	h-32c-5.896,0-10.667,4.771-10.667,10.667c0,5.896,4.771,10.667,10.667,10.667h32v32c0,5.896,4.771,10.667,10.667,10.667
	c5.896,0,10.667-4.771,10.667-10.667v-32h32c5.896,0,10.667-4.771,10.667-10.667C448,324.771,443.229,320,437.333,320z"/>
<linearGradient id="SVGID_2_" gradientUnits="userSpaceOnUse" x1="-46.5237" y1="641.3358" x2="-22.5258" y2="630.1462" gradientTransform="matrix(21.3333 0 0 -21.3333 996.3334 13791.667)">
	<stop  offset="0" style="stop-color:#FFFFFF;stop-opacity:0.2"/>
	<stop  offset="1" style="stop-color:#FFFFFF;stop-opacity:0"/>
</linearGradient>
<path style="fill:url(#SVGID_2_);" d="M405.333,213.874V74.667c0-5.896-4.771-10.667-10.667-10.667H32
	c-5.896,0-10.667,4.771-10.667,10.667v33.965C8.944,113.049,0,124.779,0,138.667s8.944,25.617,21.333,30.035V320
	c0,23.531,19.135,42.667,42.667,42.667h217.882C295.858,411.84,341.073,448,394.667,448C459.365,448,512,395.365,512,330.667
	C512,269.569,465.044,219.288,405.333,213.874z"/>
<g>
</g>
<g>
</g>
<g>
</g>
<g>
</g>
<g>
</g>
<g>
</g>
<g>
</g>
<g>
</g>
<g>
</g>
<g>
</g>
<g>
</g>
<g>
</g>
<g>
</g>
<g>
</g>
<g>
</g>
</svg>
